<svg xmlns="http://www.w3.org/2000/svg" viewBox="0 0 664 134.09"><defs><style>.cls-1{font-size:116.25px;fill:#43d6ac;font-family:SolThin, Sol Thin;}.cls-2{fill:#5441e5;}</style></defs><title>Text</title><g id="Layer_2" data-name="Layer 2"><g id="Layer_1-2" data-name="Layer 1"><text class="cls-1" transform="translate(0 104.68)">CREDENZ ‘18</text><path class="cls-2" d="M21.34,105.68c-3.25,0-10.81-.46-15-5S1.93,88.71,1.93,87V31.17c0-1.74.23-9.18,4.42-13.72s11.74-4.88,15-4.88H61.68V17H19.83c-3.37,0-7.21.7-10.11,3.49C7.28,22.8,6.35,27.68,6.35,32.33V85.8c0,4.53.93,9.53,3.37,12,2.91,2.79,6.74,3.49,10.11,3.49H61.68v4.42Z"/><path class="cls-2" d="M134.91,61.39C131.31,65,125.38,66,123.64,66H85.16l53,39.64h-7L81.09,68c-1.51-1.16-2.91-2.56-2.79-4s1.28-2.44,2.91-2.44h41c2.67,0,6.39-.23,9.42-3.6,3.25-3.6,3.49-7.32,3.49-10.35V31.17c0-3.14.12-7-3.37-10.69-3.14-3.37-6.86-3.49-9.53-3.49H77.14v88.69H72.72V12.57h50.91c1.74,0,7.67,1,11.28,4.65a18.64,18.64,0,0,1,4.65,11.39V50A18.64,18.64,0,0,1,134.91,61.39Z"/><path class="cls-2" d="M167.46,105.68c-1.86,0-7.9-.93-11.51-4.65-3.25-3.37-4.42-8.6-4.42-11.39V30.59c0-2.67,0-8.72,4.3-13.14s11-4.88,14.18-4.88h41.15V17H169.44c-3,0-7.32.7-10.11,3.49C156.77,22.8,156,27,156,31.52V55.35h55.21v4.42H156V87.08c0,3.14.23,7.21,3.37,10.58s6.86,3.6,9.42,3.6h42.43v4.42Z"/><path class="cls-2" d="M282,100.68c-4.18,4.53-11.74,5-15,5H219.89V12.57h47.78c1.74,0,9.18.35,13.72,4.42s4.88,11.74,4.88,14.88V87C286.27,88.71,286.15,96.27,282,100.68Zm0-70.21c0-3.49-.81-7.32-3.49-10.11C276,17.92,272,17,267.43,17H224.31v84.28h44.17c3.37,0,7.21-.7,10-3.49,2.44-2.44,3.49-6.39,3.49-11Z"/><path class="cls-2" d="M315.44,105.68c-1.86,0-7.9-.93-11.51-4.65-3.25-3.37-4.42-8.6-4.42-11.39V30.59c0-2.67,0-8.72,4.3-13.14s11-4.88,14.18-4.88h41.15V17H317.42c-3,0-7.32.7-10.11,3.49-2.56,2.32-3.37,6.51-3.37,11V55.35h55.21v4.42H303.94V87.08c0,3.14.23,7.21,3.37,10.58s6.86,3.6,9.42,3.6h42.43v4.42Z"/><path class="cls-2" d="M432.27,106.84c-1.63,0-3-1.39-3.72-3L373.92,20.94v84.74H369.5V14.43c0-1.74.81-2.91,2.44-3s3,1.28,3.84,2.91l54.63,83V12.57h4.42v91.25A2.7,2.7,0,0,1,432.27,106.84Z"/><path class="cls-2" d="M452.5,105.68c-3.49,0-4.65-.23-5.81-1.63-.93-1.16-1-3,.46-5.23L502.48,17H447.15V12.57h54.17c3.49,0,4.65.23,5.81,1.74.93,1,.7,2.91-.81,5.23l-55,81.72h55.8v4.42Z"/><path class="cls-2" d="M554.91,19.31a4.06,4.06,0,0,1,2,3.6,3.72,3.72,0,0,1-3.72,3.6A3.87,3.87,0,0,1,549.45,23a10.8,10.8,0,0,1,.81-3.37l2.56-7.09h4.42Z"/><path class="cls-2" d="M571.42,105.68V12.57h4.3v93.11Z"/><path class="cls-2" d="M650.46,101.26c-4.53,4.07-10.93,4.42-14.07,4.42H607.46c-1.74,0-9.07-.35-13.6-4.42s-5.11-8.72-5.11-13.6V74.88c0-1.74.23-9.88,4.65-14.3,2.09-2.09,2.67-2.44,4.65-3.14-1.86-1,.12.7-4.53-3.25s-4.77-10.58-4.77-13.83V31.17c0-1.74.23-9.18,4.42-13.72s10.58-4.88,15-4.88H635.7c4.53,0,10.93.46,15.11,4.88s4.3,12,4.3,13.72v9.18c0,3.25-.23,9.76-4.77,13.83s-2.56,2.21-4.42,3.25a10.24,10.24,0,0,1,4.65,3.14c4.3,4.42,4.53,12.55,4.53,14.3v13C655.11,91.15,655.11,97.31,650.46,101.26Zm.23-27.08c0-4.53-1-8.37-3.37-11-2.56-2.91-6.63-3.37-10-3.37H606.64c-3.37,0-7.44.46-10.11,3.37-2.21,2.67-3.25,6.51-3.25,11V87.9c0,3.25-.12,6.63,3.25,10,2.44,2.44,6.51,3.37,11.16,3.37h28.48c4.65,0,8.83-.93,11.28-3.37,2.67-2.79,3.25-6.74,3.25-10Zm0-42.78c0-4.53-.81-8.6-3.37-10.93-2.79-2.79-7.32-3.49-10-3.49H606.64c-2.79,0-6.62-.35-10.46,3.25-2.79,2.56-2.91,6.63-2.91,11.16V41.86c0,3.37.58,7.32,3.37,10.11,2.44,2.44,6.63,3.37,10,3.37h30.69c3.37,0,7.44-.93,10-3.37,2.67-2.79,3.37-6.74,3.37-10.11Z"/></g></g></svg>